<svg style="fill: #fff" height="512pt" viewBox="0 0 512 512" width="512pt" xmlns="http://www.w3.org/2000/svg">
    <path d="m416.511719 185.398438c-3.476563-2.847657-8.046875-3.988282-12.453125-3.109376-94.050782 18.8125-162.058594 101.523438-162.058594 197.679688v42.03125h-167c-8.285156 0-15 6.714844-15 15s6.714844 15 15 15h182c8.285156 0 15-6.714844 15-15v-18.085938c37.40625-9.851562 70.769531-29.996093 97.082031-58.734374 3.675781-4.015626 4.886719-9.707032 3.164063-14.875l-4.433594-13.304688h14.386719c5.367187 0 10.324219-2.867188 13-7.519531 17.535156-30.480469 26.800781-65.214844 26.800781-100.453125v-27.027344c0-4.492188-2.015625-8.75-5.488281-11.601562zm-24.511719 38.632812c0 27.132812-6.453125 53.910156-18.726562 77.96875h-26.273438c-4.820312 0-9.351562 2.316406-12.167969 6.230469-2.820312 3.910156-3.585937 8.9375-2.0625 13.511719l8.148438 24.449218c-19.472657 19.253906-42.933594 33.367188-68.917969 41.511719v-7.734375c0-75.277344 49.472656-141.386719 120-163.652344zm0 0"/>
    <path d="m467 0h-422c-24.8125 0-45 20.1875-45 45v422c0 24.8125 20.1875 45 45 45h422c24.8125 0 45-20.1875 45-45v-422c0-24.8125-20.1875-45-45-45zm-422 30h422c8.269531 0 15 6.730469 15 15v75h-452v-75c0-8.269531 6.730469-15 15-15zm422 452h-422c-8.269531 0-15-6.730469-15-15v-317h452v317c0 8.269531-6.730469 15-15 15zm0 0"/>
    <path d="m89.972656 75c0 8.285156-6.71875 15-15 15-8.285156 0-15-6.714844-15-15s6.714844-15 15-15c8.28125 0 15 6.714844 15 15zm0 0"/>
    <path d="m149.972656 75c0 8.285156-6.71875 15-15 15-8.285156 0-15-6.714844-15-15s6.714844-15 15-15c8.28125 0 15 6.714844 15 15zm0 0"/>
    <path d="m209.972656 75c0 8.285156-6.71875 15-15 15-8.285156 0-15-6.714844-15-15s6.714844-15 15-15c8.28125 0 15 6.714844 15 15zm0 0"/>
    <path d="m287 90h150c8.285156 0 15-6.714844 15-15s-6.714844-15-15-15h-150c-8.285156 0-15 6.714844-15 15s6.714844 15 15 15zm0 0"/>
</svg>